PathFileType	4	(X/Y/Z)	/Users/itak/Documents/Research/Walk-IL/dataset/trc/00466_00167.trc
DataRate	CameraRate	NumFrames	NumMarkers	Units	OrigDataRate	OrigDataStartFrame	OrigNumFrames
100.000000	100.000000	4	53	mm	100.000000	624	714
Frame#	Time	RPSI			LPSI			L3			STRN			T10			C7			CLAV			RBAK			LBAK			LSHO			LUPA			LAEL			LAOL			LWTS			LWPS			LFRA			LIFD			LHPS			LHTS			RSHO			RUPA			RAEL			RAOL			RWTS			RWPS			RFRA			RIFD			RHTS			RHPS			RBHD			LFHD			RFHD			LBHD			LHIP			RHIP			RASI			LASI			LKNE			LTHI			LANK			LTIP			LTOE			LMT1			LMT5			LHEE			RKNE			RTHI			RANK			RTIP			RTOE			RMT1			RMT5			RHEE			
		X1	Y1	Z1	X2	Y2	Z2	X3	Y3	Z3	X4	Y4	Z4	X5	Y5	Z5	X6	Y6	Z6	X7	Y7	Z7	X8	Y8	Z8	X9	Y9	Z9	X10	Y10	Z10	X11	Y11	Z11	X12	Y12	Z12	X13	Y13	Z13	X14	Y14	Z14	X15	Y15	Z15	X16	Y16	Z16	X17	Y17	Z17	X18	Y18	Z18	X19	Y19	Z19	X20	Y20	Z20	X21	Y21	Z21	X22	Y22	Z22	X23	Y23	Z23	X24	Y24	Z24	X25	Y25	Z25	X26	Y26	Z26	X27	Y27	Z27	X28	Y28	Z28	X29	Y29	Z29	X30	Y30	Z30	X31	Y31	Z31	X32	Y32	Z32	X33	Y33	Z33	X34	Y34	Z34	X35	Y35	Z35	X36	Y36	Z36	X37	Y37	Z37	X38	Y38	Z38	X39	Y39	Z39	X40	Y40	Z40	X41	Y41	Z41	X42	Y42	Z42	X43	Y43	Z43	X44	Y44	Z44	X45	Y45	Z45	X46	Y46	Z46	X47	Y47	Z47	X48	Y48	Z48	X49	Y49	Z49	X50	Y50	Z50	X51	Y51	Z51	X52	Y52	Z52	X53	Y53	Z53	

625	6.24	-463.8037109375	966.7261352539062	-366.5504150390625	-481.2735900878906	967.872314453125	-224.2782287597656	-485.0884704589844	1062.721557617188	-324.2597045898438	-755.8164672851562	1254.651000976562	-349.0434875488281	-469.7964477539062	1186.525146484375	-332.8697509765625	-535.3794555664062	1453.88916015625	-361.503662109375	-720.518798828125	1367.559692382812	-348.5654602050781	-472.1364135742188	1329.4990234375	-450.3595275878906	-504.7652282714844	1410.821411132812	-258.6168212890625	-610.322265625	1432.145751953125	-183.7289276123047	-603.52197265625	1316.543823242188	-82.16923522949219	-626.8096313476562	1100.530029296875	-46.37907409667969	-542.3114013671875	1083.14599609375	-105.5981216430664	-717.8889770507812	905.9163208007812	-99.09428405761719	-675.7637329101562	888.3170776367188	-40.1545295715332	-654.2456665039062	1013.988525390625	-39.74322509765625	-739.0549926757812	749.8328857421875	-76.81414794921875	-690.4190673828125	814.4461669921875	-35.66764831542969	-742.74609375	824.4537353515625	-84.94497680664062	-600.507568359375	1420.413452148438	-519.8416748046875	-582.8789672851562	1361.03076171875	-596.0822143554688	-601.2612915039062	1077.37109375	-662.9967041015625	-552.27978515625	1053.255493164062	-622.5860595703125	-729.2905883789062	887.2724609375	-626.3153686523438	-664.143798828125	864.9554443359375	-681.7469482421875	-611.0661010742188	1020.100524902344	-674.67822265625	-755.906494140625	734.3115234375	-645.9436645507812	-759.1074829101562	795.1691284179688	-642.9898071289062	-693.3671264648438	782.510009765625	-683.677734375	-634.9970703125	1647.69384765625	-456.5101013183594	-753.1795043945312	1664.393798828125	-287.5892944335938	-767.1102905273438	1661.15771484375	-417.0891723632812	-600.847900390625	1657.079833984375	-282.43310546875	-636.6118774414062	868.013916015625	-122.3438262939453	-561.2503662109375	853.2642822265625	-512.9736328125	-671.3582763671875	896.67578125	-466.6301574707031	-718.9664916992188	907.9570922851562	-215.1645660400391	-707.9464111328125	451.5247192382812	-153.1797332763672	-713.0742797851562	605.3965454101562	-136.8248901367188	-602.2163696289062	44.95745849609375	-108.9754486083984	-690.5467529296875	301.9703674316406	-125.8058700561523	-818.9920654296875	45.9758186340332	-217.7042999267578	-738.806884765625	50.92986679077148	-234.2243347167969	-754.3186645507812	46.93669128417969	-122.3111953735352	-547.3637084960938	47.377685546875	-164.3437957763672	-598.4931030273438	462.0421752929688	-454.7456970214844	-608.5606689453125	719.404052734375	-511.3782043457031	-565.4755249023438	45.37852478027344	-421.1780395507812	-607.5094604492188	320.1660766601562	-451.6715393066406	-774.6166381835938	46.97045135498047	-354.2676696777344	-708.171875	47.34751892089844	-323.9678649902344	-700.522216796875	45.62013244628906	-433.2782592773438	-495.7422485351562	38.77774047851562	-381.1430053710938	
626	6.25	-466.6193542480469	966.2649536132812	-365.8577575683594	-484.1322021484375	967.2359619140625	-223.5659942626953	-487.3371276855469	1061.777099609375	-323.0132751464844	-756.7938842773438	1254.6884765625	-348.5990600585938	-471.2086791992188	1185.689331054688	-331.2997741699219	-535.6878051757812	1453.289306640625	-360.2769470214844	-721.187744140625	1367.433959960938	-348.0043334960938	-472.2052612304688	1328.659301757812	-448.7494201660156	-505.6985473632812	1410.068237304688	-257.1929321289062	-611.4686889648438	1431.675903320312	-182.6747436523438	-605.3206176757812	1315.828369140625	-81.16295623779297	-628.5610961914062	1099.499755859375	-46.10295867919922	-543.758544921875	1082.608764648438	-105.0409088134766	-717.3917846679688	903.786865234375	-98.90532684326172	-675.33154296875	886.7892456054688	-39.75293350219727	-655.2024536132812	1012.719909667969	-39.48577117919922	-736.6712036132812	747.4248046875	-76.52045440673828	-689.0755615234375	812.7055053710938	-35.23472213745117	-741.2711181640625	821.9956665039062	-84.76268768310547	-600.1875	1419.732299804688	-519.04736328125	-582.248779296875	1360.03759765625	-595.0211791992188	-600.4992065429688	1076.044799804688	-661.1565551757812	-551.55517578125	1052.33056640625	-620.5548706054688	-727.3091430664062	885.1156005859375	-624.0274047851562	-661.9862060546875	863.1532592773438	-679.3824462890625	-610.0431518554688	1018.693054199219	-672.7145385742188	-752.775634765625	731.9447021484375	-643.1425170898438	-756.3895263671875	792.7225341796875	-640.3900146484375	-690.53515625	780.4598388671875	-681.0475463867188	-634.9848022460938	1647.396484375	-455.8221435546875	-753.6460571289062	1664.28271484375	-287.2655944824219	-767.1904907226562	1660.8984375	-416.7928466796875	-601.2332763671875	1656.902954101562	-281.6466674804688	-638.8681640625	867.1867065429688	-121.8577499389648	-563.9723510742188	853.5240478515625	-512.8104858398438	-674.1785888671875	896.7205200195312	-466.3713684082031	-722.013427734375	907.1517333984375	-214.5884857177734	-705.6597900390625	450.3321228027344	-152.3582305908203	-712.0263671875	604.0131225585938	-136.0169677734375	-601.68212890625	44.27848434448242	-109.178092956543	-689.0159301757812	300.8750915527344	-125.6251754760742	-818.8057250976562	44.97003936767578	-218.0907135009766	-738.4638061523438	50.08759307861328	-234.5458068847656	-754.0733032226562	46.80446624755859	-122.4501876831055	-546.7045288085938	46.0841064453125	-164.4495544433594	-598.8284912109375	462.0198974609375	-454.7726135253906	-610.5410766601562	719.4057006835938	-511.5753784179688	-565.45947265625	45.33484268188477	-421.2170104980469	-607.5046997070312	320.2320556640625	-451.7607421875	-774.5006103515625	47.00833511352539	-354.4051513671875	-708.123291015625	47.37207794189453	-323.9932250976562	-700.4889526367188	45.6170654296875	-433.2986755371094	-495.7456665039062	38.70245361328125	-381.1590576171875	
627	6.26	-469.4244689941406	965.8134765625	-365.2656555175781	-486.9989624023438	966.7481689453125	-222.9552917480469	-489.6393127441406	1060.905151367188	-321.8390502929688	-757.747314453125	1254.854614257812	-348.1152038574219	-472.6446228027344	1184.91455078125	-329.7413940429688	-535.9299926757812	1452.782104492188	-358.9969787597656	-721.794189453125	1367.427734375	-347.3960571289062	-472.1730651855469	1327.9140625	-447.0693054199219	-506.5587463378906	1409.365966796875	-255.72265625	-612.5201416015625	1431.258911132812	-181.5533599853516	-607.0579833984375	1315.14990234375	-80.08283996582031	-630.37646484375	1098.527465820312	-45.76803588867188	-545.245361328125	1082.097778320312	-104.3811187744141	-716.9454345703125	901.7555541992188	-98.614013671875	-674.9774169921875	885.3580322265625	-39.24431228637695	-656.2236938476562	1011.526428222656	-39.16359329223633	-734.3860473632812	745.1595458984375	-76.12123107910156	-687.8327026367188	811.0711669921875	-34.68681716918945	-739.8827514648438	819.656982421875	-84.4759521484375	-599.7996826171875	1419.112060546875	-518.2249755859375	-581.5399169921875	1359.04833984375	-593.892578125	-599.6820068359375	1074.728271484375	-659.203369140625	-550.7688598632812	1051.427978515625	-618.4207763671875	-725.2107543945312	882.9720458984375	-621.6218872070312	-659.70458984375	861.3818969726562	-676.8997802734375	-608.9546508789062	1017.308227539062	-670.6331787109375	-749.5684204101562	729.6134033203125	-640.2982177734375	-753.5733032226562	790.309326171875	-637.7418212890625	-687.6083984375	778.4551391601562	-678.3474731445312	-634.8270263671875	1647.184448242188	-455.0546569824219	-754.040283203125	1664.284423828125	-286.9096984863281	-767.1094360351562	1660.75048828125	-416.4847106933594	-601.5548095703125	1656.838500976562	-280.767578125	-641.103271484375	866.6736450195312	-121.3413925170898	-566.7657470703125	853.7490844726562	-512.6786499023438	-677.03466796875	896.7723388671875	-466.1075439453125	-725.0332641601562	906.51806640625	-214.0552825927734	-702.971435546875	449.4127502441406	-151.2741851806641	-710.7284545898438	602.9249877929688	-134.9640197753906	-600.9459228515625	43.82308578491211	-109.4232635498047	-687.0774536132812	300.0666198730469	-125.2538299560547	-818.46337890625	44.42192840576172	-218.2721710205078	-738.0052490234375	49.51782989501953	-234.7404479980469	-753.5513305664062	46.8780517578125	-122.5137786865234	-545.901611328125	45.02310180664062	-164.6809387207031	-599.231689453125	462.031494140625	-454.7745361328125	-612.6275024414062	719.3910522460938	-511.7928771972656	-565.4517822265625	45.30134582519531	-421.2610473632812	-607.5512084960938	320.3216857910156	-451.8372802734375	-774.3862915039062	47.06089401245117	-354.5470275878906	-708.0720825195312	47.39426422119141	-324.0160827636719	-700.4600830078125	45.61576080322266	-433.3116455078125	-495.7638854980469	38.6368408203125	-381.1840209960938	
628	6.27	-472.1908569335938	965.402587890625	-364.7936706542969	-489.8345947265625	966.4754638671875	-222.4812774658203	-491.9956665039062	1060.135620117188	-320.7878723144531	-758.6907958984375	1255.17236328125	-347.6036682128906	-474.1066284179688	1184.215698242188	-328.2384643554688	-536.1198120117188	1452.385375976562	-357.6804809570312	-722.34814453125	1367.564331054688	-346.7515258789062	-472.0794372558594	1327.286499023438	-445.3488464355469	-507.3467102050781	1408.738647460938	-254.2311401367188	-613.474609375	1430.920043945312	-180.3828277587891	-608.721435546875	1314.544921875	-78.951416015625	-632.2401733398438	1097.655517578125	-45.39411163330078	-546.7732543945312	1081.650390625	-103.6597595214844	-716.5714111328125	899.8674926757812	-98.19998168945312	-674.7020874023438	884.0650024414062	-38.62062072753906	-657.3017578125	1010.453369140625	-38.78109741210938	-732.22119140625	743.0771484375	-75.58678436279297	-686.68798828125	809.5843505859375	-34.0140380859375	-738.608154296875	817.4844970703125	-84.04990386962891	-599.3701171875	1418.580078125	-517.3807373046875	-580.7836303710938	1358.102661132812	-592.7117309570312	-598.8360595703125	1073.457885742188	-657.1328125	-549.9295043945312	1050.5849609375	-616.1771240234375	-722.9951782226562	880.8701782226562	-619.0899658203125	-657.29541015625	859.6738891601562	-674.2890014648438	-607.8141479492188	1015.981628417969	-668.4238891601562	-746.2661743164062	727.3403930664062	-637.4194946289062	-750.6519165039062	787.9562377929688	-635.0367431640625	-684.5797729492188	776.526123046875	-675.5760498046875	-634.52880859375	1647.06494140625	-454.2110290527344	-754.3539428710938	1664.400268554688	-286.5146179199219	-766.876708984375	1660.732055664062	-416.1529846191406	-601.8221435546875	1656.881225585938	-279.802734375	-643.2835083007812	866.5160522460938	-120.8249053955078	-569.5967407226562	853.929443359375	-512.5748291015625	-679.891845703125	896.8402709960938	-465.8363342285156	-727.9847412109375	906.1176147460938	-213.5679016113281	-699.9602661132812	448.8306274414062	-149.9493713378906	-709.2145385742188	602.2001342773438	-133.6971588134766	-600.2259521484375	43.55055618286133	-109.6640396118164	-684.9033203125	299.5930786132812	-124.6729125976562	-818.1257934570312	44.17737197875977	-218.299560546875	-737.5833740234375	49.19403839111328	-234.8182525634766	-752.9796752929688	47.02555465698242	-122.4994430541992	-545.1647338867188	44.25331878662109	-164.9722595214844	-599.744140625	462.0762329101562	-454.7373352050781	-614.8138427734375	719.348876953125	-512.0087280273438	-565.4509887695312	45.28225708007812	-421.3043823242188	-607.6871337890625	320.4275512695312	-451.8871765136719	-774.281982421875	47.12119674682617	-354.6773986816406	-708.02294921875	47.4105110168457	-324.0330810546875	-700.4371337890625	45.61680221557617	-433.3137512207031	-495.7909545898438	38.58639907836914	-381.2146606445312	
